<svg xmlns="http://www.w3.org/2000/svg" width="400" height="300" viewBox="-40 -30 400 300" role="img" aria-labelledby="title desc">
  <title id="title">Símbolo NibusES</title>
  <desc id="desc">Nuvem verde com gota em formato de folha.</desc>
  <defs>
    <linearGradient id="cloud" x1="70" x2="230" y1="34" y2="168" gradientUnits="userSpaceOnUse">
      <stop stop-color="#9ad36b"/>
      <stop offset=".55" stop-color="#7cb55c"/>
      <stop offset="1" stop-color="#50753c"/>
    </linearGradient>
    <linearGradient id="cloudShade" x1="72" x2="222" y1="56" y2="150" gradientUnits="userSpaceOnUse">
      <stop stop-color="#a8dc78"/>
      <stop offset="1" stop-color="#6b9c4f"/>
    </linearGradient>
    <linearGradient id="leaf" x1="128" x2="196" y1="96" y2="222" gradientUnits="userSpaceOnUse">
      <stop stop-color="#b3e58a"/>
      <stop offset=".45" stop-color="#85c262"/>
      <stop offset="1" stop-color="#50753c"/>
    </linearGradient>
    <filter id="softShadow" x="-25" y="-45" width="370" height="325" color-interpolation-filters="sRGB" filterUnits="userSpaceOnUse">
      <feDropShadow dx="0" dy="6" flood-color="#25361b" flood-opacity=".18" stdDeviation="5"/>
    </filter>
  </defs>
  <g filter="url(#softShadow)">
    <path fill="#1d351c" d="M67 152c-34 0-58-23-58-55 0-31 25-55 58-55 9-27 34-43 65-43 38 0 68 24 77 59 9-5 20-8 33-8 36 0 64 27 64 61 0 31-25 55-58 55H67z"/>
    <path fill="url(#cloud)" d="M69 141c-27 0-47-18-47-43 0-26 21-45 49-45 8-24 31-40 60-40 36 0 64 25 68 59 10-7 23-11 39-11 29 0 52 22 52 49 0 25-20 45-48 45H69z"/>
    <path fill="url(#cloudShade)" d="M69 131c-21 0-37-14-37-32 0-19 16-34 38-34 9 0 19 3 27 9 4-24 25-42 55-42 29 0 52 18 57 46 9-8 21-12 35-12 23 0 40 16 40 36 0 19-16 34-38 34H69z" opacity=".72"/>
    <path fill="#b8e88f" d="M44 92c6-18 25-27 47-21 6 2 11 5 16 9-9 2-18 7-25 14-9 9-28 12-38 0v-2z" opacity=".5"/>
    <path fill="#b8e88f" d="M207 82c11-10 26-13 41-8 14 5 23 16 25 31-12-12-30-15-45-7-10 5-22 2-31-6 2-4 5-7 10-10z" opacity=".42"/>
    <path fill="#fff" d="M160 54c45 58 67 96 67 128 0 43-32 70-67 70s-67-27-67-70c0-32 22-70 67-128z"/>
    <path fill="#183318" d="M160 72c36 50 53 82 53 110 0 33-25 53-53 53s-53-20-53-53c0-28 17-60 53-110z"/>
    <path fill="url(#leaf)" d="M160 84c31 43 45 72 45 97 0 27-21 43-45 43s-45-16-45-43c0-25 14-54 45-97z"/>
    <path fill="#b9e98b" d="M143 207c-18-12-25-30-17-52 6-17 20-34 36-56-7 33-6 62-19 107z" opacity=".6"/>
    <path fill="none" stroke="#25361b" stroke-linecap="round" stroke-width="8" d="M171 128c-4 33-24 54-41 76"/>
    <path fill="none" stroke="#25361b" stroke-linecap="round" stroke-width="7" d="M183 149c-12 18-27 26-42 33"/>
    <path fill="none" stroke="#25361b" stroke-linecap="round" stroke-width="7" d="M187 176c-13 13-27 18-42 18"/>
    <path fill="none" stroke="#e7f5d8" stroke-linecap="round" stroke-width="7" d="M134 197c-16-20-13-48 28-98"/>
  </g>
</svg>
